<svg xmlns="http://www.w3.org/2000/svg" viewBox="0 0 576 576" fill="none" aria-hidden="true">
  <!-- KnoxFuel green-tier gas pump mascot (same art as station sheet) -->
  <path
    stroke="#0d9818"
    stroke-width="20"
    stroke-linecap="round"
    stroke-linejoin="round"
    d="M332.25,487.12V133.13c0-24.44-19.81-44.25-44.25-44.25h-154.87c-24.44,0-44.25,19.81-44.25,44.25v353.98"
  />
  <path
    stroke="#0d9818"
    stroke-width="20"
    stroke-linecap="round"
    stroke-linejoin="round"
    d="M66.76,487.12h287.61"
  />
  <path
    stroke="#0d9818"
    stroke-width="20"
    stroke-linecap="round"
    stroke-linejoin="round"
    d="M146.3,221.63s22.96,16.06,65.6,16.06c32.12,0,62.94-16.06,62.94-16.06"
  />
  <circle cx="157.99" cy="156.18" r="11.96" fill="#0d9818" />
  <circle cx="263.14" cy="156.18" r="11.96" fill="#0d9818" />
  <path
    stroke="#0d9818"
    stroke-width="20"
    stroke-linecap="round"
    stroke-linejoin="round"
    d="M338.25,310.12h44.25c24.44,0,44.25,19.81,44.25,44.25v44.25c0,24.44,9.35,44.25,33.79,44.25s30.44-19.81,30.44-44.25v-154.82c0-11.79-4.69-23.1-13.05-31.42l-75.44-79.25"
  />
</svg>
